<svg xmlns="http://www.w3.org/2000/svg" width="157.258" height="114.478" viewBox="0 0 157.258 114.478">
  <g id="salama-assurance-seeklogo.com" transform="translate(-87.9 -201.033)">
    <g id="Groupe_612" data-name="Groupe 612" transform="translate(124.028 201.033)">
      <path id="Tracé_2491" data-name="Tracé 2491" d="M545.38,293.289,467.7,278.6v51h75.9Z" transform="translate(-463.313 -270.326)" fill="#cccbce"/>
      <path id="Tracé_2492" data-name="Tracé 2492" d="M465.108,227.723s5.739,2.347,1.365,4c0,0-6.283,2.347-3.819,15.041,0,0,6.827,15.116,19.383-3.254,0,0,7.371-17.665-3.275-29.41,0,0-8.47-13.868-28.13-6.582-19.127,7.094-21.975,26.86-21.612,38.317q.016.48.032.928c.544,11.286,7.648,21.623,7.648,21.623s1.365,4-2.187,0c0,0-13.238-27.97-5.526-41.837,0,0,3.894-16.918,24.642-23.97s33.314,13.868,33.037,15.51c0,0,9.014,21.857-6.55,35.725,0,0-24.183,15.137-22.2-18.167.011,0,.085-5.334,7.19-7.926" transform="translate(-426.575 -201.122)" fill="#006767"/>
      <path id="Tracé_2493" data-name="Tracé 2493" d="M650.517,243.475s-5.739-2.347-1.365-4c0,0,6.283-2.347,3.819-15.041,0,0-7.851-13.174-19.383,3.254,0,0-7.371,17.665,3.275,29.41,0,0,8.47,13.868,28.13,6.582,19.127-7.094,21.975-26.86,21.612-38.317q-.016-.48-.032-.928c-.544-11.286-7.648-21.623-7.648-21.623s-1.365-4,2.187,0c0,0,13.238,27.97,5.526,41.837,0,0-3.894,16.918-24.642,23.97s-33.314-13.868-33.037-15.51c0,0-9.014-21.857,6.55-35.725,0,0,26.732-14.273,22.2,18.167-.011.011-.085,5.344-7.19,7.926" transform="translate(-605.05 -201.033)" fill="#66672c"/>
    </g>
    <g id="Groupe_613" data-name="Groupe 613" transform="translate(87.9 275.829)">
      <path id="Tracé_2494" data-name="Tracé 2494" d="M102.2,902.2l.181,7.542H101.7a7.747,7.747,0,0,0-2.379-4.566,5.963,5.963,0,0,0-4.1-1.728,3.843,3.843,0,0,0-2.7.907,2.767,2.767,0,0,0-.992,2.091,2.515,2.515,0,0,0,.352,1.333,5.576,5.576,0,0,0,1.547,1.547,36.874,36.874,0,0,0,3.616,1.952,15.954,15.954,0,0,1,5.355,3.691,6.2,6.2,0,0,1,1.365,3.968,6.445,6.445,0,0,1-2.208,4.886,7.94,7.94,0,0,1-5.611,2.048,9.349,9.349,0,0,1-2.016-.213,15.619,15.619,0,0,1-2.389-.821,3.549,3.549,0,0,0-1.323-.331,1.612,1.612,0,0,0-.917.331,2.423,2.423,0,0,0-.789,1.013H87.9v-8.523h.619a9.779,9.779,0,0,0,2.827,5.494,6.649,6.649,0,0,0,4.512,1.9,4.247,4.247,0,0,0,2.976-1.013,3.15,3.15,0,0,0,1.109-2.368,3.022,3.022,0,0,0-.427-1.547,5.127,5.127,0,0,0-1.291-1.429,19.669,19.669,0,0,0-3.072-1.76,26.956,26.956,0,0,1-4.438-2.582,8.078,8.078,0,0,1-2.08-2.39,5.944,5.944,0,0,1-.725-2.9,6.152,6.152,0,0,1,1.984-4.608,6.943,6.943,0,0,1,5-1.9,8.292,8.292,0,0,1,2.133.267,10.931,10.931,0,0,1,1.909.747,4.483,4.483,0,0,0,1.579.544.884.884,0,0,0,.683-.267,3.116,3.116,0,0,0,.469-1.28h.533Z" transform="translate(-87.9 -902.2)" fill="#006767"/>
      <path id="Tracé_2495" data-name="Tracé 2495" d="M287.253,919.352h-7.99l-.949,2.208a4.977,4.977,0,0,0-.469,1.824,1.507,1.507,0,0,0,.768,1.4,6.528,6.528,0,0,0,2.219.405v.619H273.3v-.619a3.331,3.331,0,0,0,2.005-1.013,13.158,13.158,0,0,0,1.931-3.414l8.1-18.06h.32l8.161,18.561a11.1,11.1,0,0,0,1.92,3.318,2.626,2.626,0,0,0,1.6.6v.619H286.389v-.619h.448a3.47,3.47,0,0,0,1.856-.363.9.9,0,0,0,.363-.768,2.131,2.131,0,0,0-.1-.619c-.021-.1-.192-.512-.5-1.248Zm-.565-1.227-3.371-7.8-3.467,7.8Z" transform="translate(-253.523 -902.647)" fill="#006767"/>
      <path id="Tracé_2496" data-name="Tracé 2496" d="M550.24,921.789l-.853,7.947H529.3v-.619h.747a3.134,3.134,0,0,0,1.589-.352,1.586,1.586,0,0,0,.672-.8,7.093,7.093,0,0,0,.181-2.1V910.972a7.651,7.651,0,0,0-.181-2.165,1.639,1.639,0,0,0-.747-.757,3.038,3.038,0,0,0-1.515-.331H529.3V907.1h12.065v.619h-.981a3.132,3.132,0,0,0-1.589.352,1.656,1.656,0,0,0-.683.8,7.091,7.091,0,0,0-.181,2.1v14.422a7.071,7.071,0,0,0,.2,2.208,1.3,1.3,0,0,0,.789.7,8.133,8.133,0,0,0,2.016.149h1.877a6.509,6.509,0,0,0,3.008-.629,5.634,5.634,0,0,0,2.08-2.005,16.2,16.2,0,0,0,1.664-4.043h.672Z" transform="translate(-482.214 -906.577)" fill="#006767"/>
      <path id="Tracé_2497" data-name="Tracé 2497" d="M774.653,919.352h-7.99l-.949,2.208a4.976,4.976,0,0,0-.469,1.824,1.507,1.507,0,0,0,.768,1.4,6.528,6.528,0,0,0,2.219.405v.619H760.7v-.619a3.331,3.331,0,0,0,2.005-1.013,13.158,13.158,0,0,0,1.931-3.414l8.1-18.06h.32l8.161,18.561a11.1,11.1,0,0,0,1.92,3.318,2.626,2.626,0,0,0,1.6.6v.619H773.789v-.619h.448a3.47,3.47,0,0,0,1.856-.363.9.9,0,0,0,.363-.768,2.13,2.13,0,0,0-.1-.619c-.021-.1-.192-.512-.5-1.248Zm-.565-1.227-3.371-7.8-3.467,7.8Z" transform="translate(-688.93 -902.647)" fill="#006767"/>
      <path id="Tracé_2498" data-name="Tracé 2498" d="M1032.706,921.924,1038.851,907h9.217v.619h-.736a3.122,3.122,0,0,0-1.6.352,1.666,1.666,0,0,0-.672.789,7,7,0,0,0-.181,2.091v14.924a7.651,7.651,0,0,0,.181,2.166,1.639,1.639,0,0,0,.747.757,3.067,3.067,0,0,0,1.515.331h.736v.619h-11.819v-.619h.736a3.121,3.121,0,0,0,1.6-.352,1.7,1.7,0,0,0,.672-.8,7.086,7.086,0,0,0,.181-2.1v-16.78l-8.673,20.641h-.405l-8.811-20.492v15.937a14.263,14.263,0,0,0,.085,2.048,2.436,2.436,0,0,0,.939,1.365,3.921,3.921,0,0,0,2.283.523v.619H1017.1v-.619h.235a3.539,3.539,0,0,0,1.4-.245,2.231,2.231,0,0,0,.981-.693,3.07,3.07,0,0,0,.512-1.216c.021-.117.032-.693.032-1.707V910.851a7.515,7.515,0,0,0-.181-2.144,1.62,1.62,0,0,0-.747-.747,3.066,3.066,0,0,0-1.515-.331h-.715v-.619h9.249Z" transform="translate(-917.979 -906.488)" fill="#006767"/>
      <path id="Tracé_2499" data-name="Tracé 2499" d="M1350.753,919.352h-7.99l-.949,2.208a4.977,4.977,0,0,0-.469,1.824,1.507,1.507,0,0,0,.768,1.4,6.527,6.527,0,0,0,2.219.405v.619H1336.8v-.619a3.331,3.331,0,0,0,2.005-1.013,13.157,13.157,0,0,0,1.931-3.414l8.1-18.06h.32l8.161,18.561a11.1,11.1,0,0,0,1.92,3.318,2.626,2.626,0,0,0,1.6.6v.619h-10.945v-.619h.448a3.47,3.47,0,0,0,1.856-.363.9.9,0,0,0,.363-.768,2.132,2.132,0,0,0-.1-.619c-.021-.1-.192-.512-.5-1.248Zm-.576-1.227-3.371-7.8-3.467,7.8Z" transform="translate(-1203.575 -902.647)" fill="#006767"/>
    </g>
    <g id="Groupe_614" data-name="Groupe 614" transform="translate(101.074 305.101)">
      <path id="Tracé_2500" data-name="Tracé 2500" d="M219.571,1204.639h-1.792l-.715-1.845h-3.254l-.672,1.845H211.4l3.168-8.139h1.739Zm-3.03-3.211-1.12-3.019-1.1,3.019Z" transform="translate(-211.4 -1194.377)" fill="#66672c"/>
      <path id="Tracé_2501" data-name="Tracé 2501" d="M292.2,1200.922l1.6-.16a1.953,1.953,0,0,0,.587,1.184,1.763,1.763,0,0,0,1.195.373,1.814,1.814,0,0,0,1.195-.331,1.016,1.016,0,0,0,.405-.789.725.725,0,0,0-.171-.491,1.315,1.315,0,0,0-.587-.352q-.288-.1-1.312-.352a4.548,4.548,0,0,1-1.856-.8,2.133,2.133,0,0,1-.395-2.795,2.162,2.162,0,0,1,1.013-.821,3.973,3.973,0,0,1,1.6-.288,3.415,3.415,0,0,1,2.3.672,2.367,2.367,0,0,1,.811,1.792l-1.643.075a1.493,1.493,0,0,0-.448-.907,1.677,1.677,0,0,0-1.045-.277,1.816,1.816,0,0,0-1.12.3.6.6,0,0,0-.256.5.632.632,0,0,0,.245.491,4.46,4.46,0,0,0,1.515.544,8.042,8.042,0,0,1,1.771.587,2.251,2.251,0,0,1,.9.832,2.439,2.439,0,0,1,.32,1.291,2.412,2.412,0,0,1-.384,1.312,2.307,2.307,0,0,1-1.1.907,4.515,4.515,0,0,1-1.771.3A3.51,3.51,0,0,1,293.2,1203,3.027,3.027,0,0,1,292.2,1200.922Z" transform="translate(-283.581 -1193.305)" fill="#66672c"/>
      <path id="Tracé_2502" data-name="Tracé 2502" d="M363.3,1200.922l1.6-.16a1.953,1.953,0,0,0,.587,1.184,1.763,1.763,0,0,0,1.195.373,1.814,1.814,0,0,0,1.195-.331,1.016,1.016,0,0,0,.405-.789.725.725,0,0,0-.171-.491,1.315,1.315,0,0,0-.587-.352q-.288-.1-1.312-.352a4.548,4.548,0,0,1-1.856-.8,2.133,2.133,0,0,1-.395-2.795,2.162,2.162,0,0,1,1.013-.821,3.973,3.973,0,0,1,1.6-.288,3.415,3.415,0,0,1,2.3.672,2.367,2.367,0,0,1,.811,1.792l-1.643.075a1.493,1.493,0,0,0-.448-.907,1.677,1.677,0,0,0-1.045-.277,1.816,1.816,0,0,0-1.12.3.6.6,0,0,0-.256.5.632.632,0,0,0,.245.491,4.46,4.46,0,0,0,1.515.544,8.042,8.042,0,0,1,1.771.587,2.251,2.251,0,0,1,.9.832,2.439,2.439,0,0,1,.32,1.291,2.412,2.412,0,0,1-.384,1.312,2.307,2.307,0,0,1-1.1.907,4.515,4.515,0,0,1-1.771.3A3.51,3.51,0,0,1,364.3,1203,3.027,3.027,0,0,1,363.3,1200.922Z" transform="translate(-347.096 -1193.305)" fill="#66672c"/>
      <path id="Tracé_2503" data-name="Tracé 2503" d="M438.2,1196.421h1.643v4.406a8.563,8.563,0,0,0,.064,1.355,1.331,1.331,0,0,0,.5.8,1.756,1.756,0,0,0,1.088.3,1.641,1.641,0,0,0,1.056-.288,1.122,1.122,0,0,0,.427-.7,8.429,8.429,0,0,0,.075-1.387v-4.5h1.632v4.278a11.392,11.392,0,0,1-.128,2.069,2.3,2.3,0,0,1-.491,1.024,2.373,2.373,0,0,1-.96.661,4.275,4.275,0,0,1-1.568.245,4.5,4.5,0,0,1-1.771-.267,2.517,2.517,0,0,1-.949-.7,2.216,2.216,0,0,1-.459-.907,9.963,9.963,0,0,1-.16-2.069Z" transform="translate(-414.006 -1194.288)" fill="#66672c"/>
      <path id="Tracé_2504" data-name="Tracé 2504" d="M515.3,1204.639V1196.5h3.456a5.806,5.806,0,0,1,1.9.224,1.881,1.881,0,0,1,.949.779,2.355,2.355,0,0,1,.352,1.28,2.207,2.207,0,0,1-.533,1.515,2.57,2.57,0,0,1-1.611.747,3.663,3.663,0,0,1,.875.683,9.24,9.24,0,0,1,.939,1.323l.992,1.589h-1.963l-1.184-1.771a13.3,13.3,0,0,0-.864-1.195,1.413,1.413,0,0,0-.491-.341,2.586,2.586,0,0,0-.832-.1h-.331v3.392H515.3Zm1.643-4.694h1.216a6.448,6.448,0,0,0,1.472-.1.876.876,0,0,0,.459-.341,1.077,1.077,0,0,0,.171-.608.955.955,0,0,0-.224-.661.994.994,0,0,0-.619-.32,11.919,11.919,0,0,0-1.195-.032h-1.28Z" transform="translate(-482.882 -1194.377)" fill="#66672c"/>
      <path id="Tracé_2505" data-name="Tracé 2505" d="M592.571,1204.639h-1.792l-.715-1.845h-3.254l-.672,1.845H584.4l3.168-8.139h1.739Zm-3.03-3.211-1.12-3.019-1.1,3.019Z" transform="translate(-544.611 -1194.377)" fill="#66672c"/>
      <path id="Tracé_2506" data-name="Tracé 2506" d="M669.3,1204.639V1196.5h1.6l3.328,5.43v-5.43h1.525v8.139H674.1l-3.286-5.3v5.3Z" transform="translate(-620.454 -1194.377)" fill="#66672c"/>
      <path id="Tracé_2507" data-name="Tracé 2507" d="M748.8,1200.491l1.589.5a3.57,3.57,0,0,1-1.216,1.974,3.831,3.831,0,0,1-4.832-.459,4.25,4.25,0,0,1-1.045-3.03,4.474,4.474,0,0,1,1.045-3.157,3.617,3.617,0,0,1,2.763-1.12,3.383,3.383,0,0,1,2.422.885,3.153,3.153,0,0,1,.832,1.494l-1.621.384a1.749,1.749,0,0,0-.6-1,1.713,1.713,0,0,0-1.109-.363,1.852,1.852,0,0,0-1.472.651,3.2,3.2,0,0,0-.565,2.1,3.4,3.4,0,0,0,.555,2.2,1.8,1.8,0,0,0,1.44.651,1.665,1.665,0,0,0,1.131-.416A2.256,2.256,0,0,0,748.8,1200.491Z" transform="translate(-686.56 -1193.216)" fill="#66672c"/>
      <path id="Tracé_2508" data-name="Tracé 2508" d="M823.1,1204.639V1196.5h6.038v1.376h-4.395v1.8h4.086v1.376h-4.086v2.219h4.544v1.376H823.1Z" transform="translate(-757.848 -1194.377)" fill="#66672c"/>
      <path id="Tracé_2509" data-name="Tracé 2509" d="M919.8,1200.922l1.6-.16a1.953,1.953,0,0,0,.587,1.184,1.763,1.763,0,0,0,1.195.373,1.814,1.814,0,0,0,1.195-.331,1.016,1.016,0,0,0,.405-.789.725.725,0,0,0-.171-.491,1.315,1.315,0,0,0-.587-.352q-.288-.1-1.312-.352a4.548,4.548,0,0,1-1.856-.8,2.133,2.133,0,0,1-.395-2.795,2.161,2.161,0,0,1,1.013-.821,3.973,3.973,0,0,1,1.6-.288,3.415,3.415,0,0,1,2.3.672,2.367,2.367,0,0,1,.811,1.792l-1.643.075a1.492,1.492,0,0,0-.448-.907,1.677,1.677,0,0,0-1.045-.277,1.816,1.816,0,0,0-1.12.3.6.6,0,0,0-.256.5.632.632,0,0,0,.245.491,4.46,4.46,0,0,0,1.515.544,8.04,8.04,0,0,1,1.771.587,2.25,2.25,0,0,1,.9.832,2.438,2.438,0,0,1,.32,1.291,2.412,2.412,0,0,1-.384,1.312,2.307,2.307,0,0,1-1.1.907,4.515,4.515,0,0,1-1.771.3A3.51,3.51,0,0,1,920.8,1203,3.071,3.071,0,0,1,919.8,1200.922Z" transform="translate(-844.232 -1193.305)" fill="#66672c"/>
      <path id="Tracé_2510" data-name="Tracé 2510" d="M994.8,1186.862v-8.139h6.038v1.376h-4.4v1.8h4.086v1.376h-4.086v2.219h4.544v1.376H994.8Zm2.091-8.6.768-1.664h1.749l-1.525,1.664Z" transform="translate(-911.232 -1176.6)" fill="#66672c"/>
      <path id="Tracé_2511" data-name="Tracé 2511" d="M1066.1,1204.639V1196.5h1.6l3.328,5.43v-5.43h1.526v8.139H1070.9l-3.286-5.3v5.3Z" transform="translate(-974.926 -1194.377)" fill="#66672c"/>
      <path id="Tracé_2512" data-name="Tracé 2512" d="M1142.9,1186.862v-8.139h6.038v1.376h-4.4v1.8h4.086v1.376h-4.086v2.219h4.544v1.376H1142.9Zm2.08-8.6.768-1.664h1.749l-1.525,1.664Z" transform="translate(-1043.534 -1176.6)" fill="#66672c"/>
      <path id="Tracé_2513" data-name="Tracé 2513" d="M1215.275,1200.491v-1.376h3.542v3.243a4.343,4.343,0,0,1-1.493.875,5.375,5.375,0,0,1-1.984.384,4.537,4.537,0,0,1-2.229-.533,3.386,3.386,0,0,1-1.429-1.536,4.916,4.916,0,0,1-.48-2.166,4.752,4.752,0,0,1,.533-2.261,3.563,3.563,0,0,1,1.558-1.515,4.268,4.268,0,0,1,1.952-.405,3.858,3.858,0,0,1,2.368.64,2.939,2.939,0,0,1,1.1,1.76l-1.632.309a1.763,1.763,0,0,0-.651-.949,1.948,1.948,0,0,0-1.184-.352,2.234,2.234,0,0,0-1.718.683,2.87,2.87,0,0,0-.64,2.027,3.213,3.213,0,0,0,.64,2.176,2.156,2.156,0,0,0,1.685.725,2.748,2.748,0,0,0,1.035-.2,3.972,3.972,0,0,0,.9-.491v-1.035Z" transform="translate(-1104.548 -1193.216)" fill="#66672c"/>
      <path id="Tracé_2514" data-name="Tracé 2514" d="M1297.171,1204.639h-1.792l-.715-1.845h-3.254l-.672,1.845H1289l3.168-8.139h1.739Zm-3.029-3.211-1.12-3.019-1.1,3.019Z" transform="translate(-1174.048 -1194.377)" fill="#66672c"/>
      <path id="Tracé_2515" data-name="Tracé 2515" d="M1374.2,1205.175V1197.1h1.643v6.7h4.086v1.376Z" transform="translate(-1250.16 -1194.913)" fill="#66672c"/>
    </g>
  </g>
</svg>
