<svg id="fingerprint" xmlns="http://www.w3.org/2000/svg" width="55.286" height="78.06" viewBox="0 0 55.286 78.06">
  <g id="Groupe_1105" data-name="Groupe 1105" transform="translate(9.759)">
    <g id="Groupe_1104" data-name="Groupe 1104">
      <path id="Tracé_3006" data-name="Tracé 3006" d="M173.523,3.4a43.9,43.9,0,0,0-33.881,0A1.626,1.626,0,1,0,141,6.355a40.676,40.676,0,0,1,31.172,0,1.6,1.6,0,0,0,.673.146,1.626,1.626,0,0,0,.676-3.106Z" transform="translate(-138.697)" fill="#cccbce"/>
    </g>
  </g>
  <g id="Groupe_1107" data-name="Groupe 1107" transform="translate(3.255 6.505)">
    <g id="Groupe_1106" data-name="Groupe 1106" transform="translate(0)">
      <path id="Tracé_3007" data-name="Tracé 3007" d="M144.357,52.908a33.069,33.069,0,0,0-47.85,0,1.627,1.627,0,1,0,2.313,2.29,29.812,29.812,0,0,1,43.219,0,1.627,1.627,0,0,0,2.319-2.283Z" transform="translate(-96.037 -42.666)" fill="#cccbce"/>
    </g>
  </g>
  <g id="Groupe_1109" data-name="Groupe 1109" transform="translate(19.565 13.01)">
    <g id="Groupe_1108" data-name="Groupe 1108">
      <path id="Tracé_3008" data-name="Tracé 3008" d="M211.093,85.333a27.785,27.785,0,0,0-6.846.852,1.626,1.626,0,1,0,.8,3.152,24.428,24.428,0,0,1,30.44,23.642,1.626,1.626,0,1,0,3.253,0A27.677,27.677,0,0,0,211.093,85.333Z" transform="translate(-203.018 -85.333)" fill="#cccbce"/>
    </g>
  </g>
  <g id="Groupe_1111" data-name="Groupe 1111" transform="translate(0 16.526)">
    <g id="Groupe_1110" data-name="Groupe 1110">
      <path id="Tracé_3009" data-name="Tracé 3009" d="M90.671,109.2a1.628,1.628,0,0,0-2.225-.582,27.693,27.693,0,0,0-5.724,4.456,28.069,28.069,0,0,0-8.034,19.43,1.625,1.625,0,0,0,1.6,1.649h.026a1.623,1.623,0,0,0,1.623-1.6,24.834,24.834,0,0,1,7.094-17.2,24.43,24.43,0,0,1,5.054-3.932A1.627,1.627,0,0,0,90.671,109.2Z" transform="translate(-74.688 -108.394)" fill="#cccbce"/>
    </g>
  </g>
  <g id="Groupe_1113" data-name="Groupe 1113" transform="translate(2.338 19.515)">
    <g id="Groupe_1112" data-name="Groupe 1112" transform="translate(0)">
      <path id="Tracé_3010" data-name="Tracé 3010" d="M131.263,135.263A21.155,21.155,0,0,0,115.326,128a20.9,20.9,0,0,0-14.978,6.261,21.583,21.583,0,0,0-6.16,15.365,27.833,27.833,0,0,1-3.041,11.725l-.914,1.626a1.627,1.627,0,1,0,2.836,1.6l.959-1.711a30.834,30.834,0,0,0,3.412-13.322,18.3,18.3,0,0,1,5.217-12.994,17.682,17.682,0,0,1,12.668-5.3,17.889,17.889,0,0,1,13.485,6.15,1.628,1.628,0,0,0,2.452-2.14Z" transform="translate(-90.024 -128)" fill="#cccbce"/>
    </g>
  </g>
  <g id="Groupe_1115" data-name="Groupe 1115" transform="translate(44.417 32.535)">
    <g id="Groupe_1114" data-name="Groupe 1114" transform="translate(0)">
      <path id="Tracé_3011" data-name="Tracé 3011" d="M373.41,240.271l-1.834-6a60.6,60.6,0,0,1-1.174-11.885l-.016-.862a21.037,21.037,0,0,0-1.207-7.038,1.625,1.625,0,0,0-3.064,1.086,17.838,17.838,0,0,1,1.018,5.994l.019.885a63.5,63.5,0,0,0,1.281,12.639l1.86,6.128a1.623,1.623,0,0,0,1.558,1.151,1.727,1.727,0,0,0,.475-.068A1.628,1.628,0,0,0,373.41,240.271Z" transform="translate(-366.021 -213.403)" fill="#cccbce"/>
    </g>
  </g>
  <g id="Groupe_1117" data-name="Groupe 1117" transform="translate(5.537 26.02)">
    <g id="Groupe_1116" data-name="Groupe 1116" transform="translate(0)">
      <path id="Tracé_3012" data-name="Tracé 3012" d="M152.531,211.564l-1.512-4.843c-2.683-8.378-3.184-17.8-3.272-21.417a14.636,14.636,0,1,0-29.269.283c.007,1.711-.309,10.749-7.178,20.656a1.626,1.626,0,0,0,2.67,1.857c7.24-10.437,7.77-19.879,7.76-22.566a11.383,11.383,0,1,1,22.764-.189,84.357,84.357,0,0,0,3.425,22.361l1.5,4.823a1.627,1.627,0,0,0,1.555,1.142,1.683,1.683,0,0,0,.485-.072A1.628,1.628,0,0,0,152.531,211.564Z" transform="translate(-111.008 -170.667)" fill="#cccbce"/>
    </g>
  </g>
  <g id="Groupe_1119" data-name="Groupe 1119" transform="translate(9.223 32.525)">
    <g id="Groupe_1118" data-name="Groupe 1118">
      <path id="Tracé_3013" data-name="Tracé 3013" d="M161.73,221.465a8.131,8.131,0,1,0-16.262.062c.02.537.381,13.312-9.949,26.755a1.626,1.626,0,0,0,2.579,1.981c11.036-14.363,10.639-28.274,10.619-28.8a4.88,4.88,0,1,1,9.761.036c.046,1.821.055,18.253-12.642,34.749a1.626,1.626,0,1,0,2.576,1.984C161.815,240.827,161.776,223.361,161.73,221.465Z" transform="translate(-135.182 -213.334)" fill="#cccbce"/>
    </g>
  </g>
  <g id="Groupe_1121" data-name="Groupe 1121" transform="translate(25.476 39.03)">
    <g id="Groupe_1120" data-name="Groupe 1120" transform="translate(0)">
      <path id="Tracé_3014" data-name="Tracé 3014" d="M245.571,257.556A1.586,1.586,0,0,0,243.877,256a1.63,1.63,0,0,0-1.555,1.695,34.606,34.606,0,0,1-.514,6.167,1.634,1.634,0,0,0,1.35,1.867,1.8,1.8,0,0,0,.26.019,1.626,1.626,0,0,0,1.6-1.366A36.443,36.443,0,0,0,245.571,257.556Z" transform="translate(-241.788 -256.001)" fill="#cccbce"/>
    </g>
  </g>
  <g id="Groupe_1123" data-name="Groupe 1123" transform="translate(13.644 52.085)">
    <g id="Groupe_1122" data-name="Groupe 1122">
      <path id="Tracé_3015" data-name="Tracé 3015" d="M176.6,341.7a1.627,1.627,0,0,0-2.023,1.1,56.011,56.011,0,0,1-10.047,19.089,1.628,1.628,0,0,0,.257,2.286,1.629,1.629,0,0,0,2.286-.257A59.27,59.27,0,0,0,177.7,343.725,1.629,1.629,0,0,0,176.6,341.7Z" transform="translate(-164.179 -341.634)" fill="#cccbce"/>
    </g>
  </g>
  <g id="Groupe_1125" data-name="Groupe 1125" transform="translate(27.233 59.429)">
    <g id="Groupe_1124" data-name="Groupe 1124" transform="translate(0)">
      <path id="Tracé_3016" data-name="Tracé 3016" d="M267.911,402.009l-1.961-6.228c-.781-2.335-1.509-4.8-1.512-4.814a1.625,1.625,0,0,0-1.467-1.164,1.6,1.6,0,0,0-1.59.989,122.793,122.793,0,0,1-7.812,15.14,1.626,1.626,0,1,0,2.745,1.743A111.042,111.042,0,0,0,262.6,396c.085.26.172.524.26.784l1.948,6.2a1.626,1.626,0,1,0,3.1-.976Z" transform="translate(-253.314 -389.799)" fill="#cccbce"/>
    </g>
  </g>
</svg>
