<svg xmlns="http://www.w3.org/2000/svg" width="17.068" height="19.489" viewBox="0 0 17.068 19.489">
  <g id="password" transform="translate(-242.2 -94.355)">
    <path id="Tracé_676" data-name="Tracé 676" d="M244.911,113.844a6.262,6.262,0,0,1-.985-.319,2.875,2.875,0,0,1-1.7-2.635c-.033-2.145-.029-4.286,0-6.431a3.021,3.021,0,0,1,2.935-2.944c.328-.01.656,0,1.013,0V98.923a4.513,4.513,0,0,1,3.658-4.476,4.587,4.587,0,0,1,5.256,3.035,4.491,4.491,0,0,1,.219,1.441v2.592h.837a3.05,3.05,0,0,1,3.111,2.92c.038.975.014,1.955.01,2.93a.759.759,0,1,1-1.517-.014c0-.913,0-1.826,0-2.74a1.5,1.5,0,0,0-1.123-1.513,1.87,1.87,0,0,0-.49-.062q-5.394-.007-10.788,0a1.525,1.525,0,0,0-1.6,1.6q-.007,3.047,0,6.088a1.521,1.521,0,0,0,1.593,1.593q5.4.007,10.807,0a1.525,1.525,0,0,0,1.6-1.527.758.758,0,0,1,.566-.728.72.72,0,0,1,.8.285.962.962,0,0,1,.147.476A3.043,3.043,0,0,1,256.7,113.8c-.048.01-.1.029-.143.038Q250.733,113.849,244.911,113.844Zm8.857-12.338a.782.782,0,0,0,.01-.1c0-.875.014-1.75-.01-2.626a2.868,2.868,0,0,0-.152-.875,3.042,3.042,0,0,0-3.429-1.979,2.988,2.988,0,0,0-2.5,2.982V101.5C249.729,101.506,251.746,101.506,253.768,101.506Z" transform="translate(0 0)" fill="#0f4947"/>
    <path id="Tracé_677" data-name="Tracé 677" d="M317.522,356.055a.761.761,0,1,1-.771-.756A.767.767,0,0,1,317.522,356.055Z" transform="translate(-70.29 -248.533)" fill="#0f4947"/>
    <path id="Tracé_678" data-name="Tracé 678" d="M376.77,356.722a.761.761,0,1,1,.752-.775A.767.767,0,0,1,376.77,356.722Z" transform="translate(-127.435 -248.438)" fill="#0f4947"/>
    <path id="Tracé_679" data-name="Tracé 679" d="M437.616,356.051a.759.759,0,1,1-.771-.752A.76.76,0,0,1,437.616,356.051Z" transform="translate(-184.676 -248.533)" fill="#0f4947"/>
    <path id="Tracé_680" data-name="Tracé 680" d="M498.322,356.048a.761.761,0,1,1-.775-.751A.767.767,0,0,1,498.322,356.048Z" transform="translate(-242.49 -248.53)" fill="#0f4947"/>
  </g>
</svg>
