<svg xmlns="http://www.w3.org/2000/svg" width="26.76" height="23.777" viewBox="0 0 26.76 23.777">
  <g id="coin-stack" transform="translate(0 -22.379)">
    <g id="Groupe_639" data-name="Groupe 639" transform="translate(0 22.379)">
      <path id="Tracé_2564" data-name="Tracé 2564" d="M7.776,119.826a16.667,16.667,0,0,0,2.167-.139v-7.539a16.68,16.68,0,0,0-2.167-.139c-4.294,0-7.775,1.579-7.775,3.526v.765C0,118.247,3.482,119.826,7.776,119.826Z" transform="translate(-0.001 -106.037)" fill="#1f6666"/>
      <path id="Tracé_2565" data-name="Tracé 2565" d="M7.776,218.187a16.691,16.691,0,0,0,2.167-.139v-2.21a16.677,16.677,0,0,1-2.167.14c-3.748,0-6.876-1.2-7.611-2.8A1.72,1.72,0,0,0,0,213.9v.765C0,216.608,3.482,218.187,7.776,218.187Z" transform="translate(-0.001 -200.461)" fill="#1f6666"/>
      <path id="Tracé_2566" data-name="Tracé 2566" d="M9.942,275.094v-.172a16.68,16.68,0,0,1-2.167.14c-3.748,0-6.876-1.2-7.611-2.8A1.719,1.719,0,0,0,0,272.98v.765c0,1.948,3.481,3.526,7.775,3.526a16.514,16.514,0,0,0,2.457-.18,2.782,2.782,0,0,1-.29-1.232Z" transform="translate(0 -255.608)" fill="#1f6666"/>
      <path id="Tracé_2567" data-name="Tracé 2567" d="M176.014,22.379c-4.294,0-7.775,1.579-7.775,3.526v.765c0,1.948,3.481,3.526,7.775,3.526s7.775-1.579,7.775-3.526v-.765C183.789,23.958,180.308,22.379,176.014,22.379Z" transform="translate(-157.029 -22.379)" fill="#1f6666"/>
      <path id="Tracé_2568" data-name="Tracé 2568" d="M176.014,126.348c-3.748,0-6.876-1.2-7.611-2.8a1.719,1.719,0,0,0-.164.722v.765c0,1.948,3.481,3.526,7.775,3.526s7.775-1.579,7.775-3.526v-.765a1.719,1.719,0,0,0-.164-.722C182.89,125.145,179.762,126.348,176.014,126.348Z" transform="translate(-157.029 -116.803)" fill="#1f6666"/>
      <path id="Tracé_2569" data-name="Tracé 2569" d="M176.014,185.432c-3.748,0-6.876-1.2-7.611-2.8a1.719,1.719,0,0,0-.164.722v.765c0,1.948,3.481,3.526,7.775,3.526s7.775-1.579,7.775-3.526v-.765a1.719,1.719,0,0,0-.164-.722C182.89,184.229,179.762,185.432,176.014,185.432Z" transform="translate(-157.029 -171.95)" fill="#1f6666"/>
      <path id="Tracé_2570" data-name="Tracé 2570" d="M176.014,247.705c-3.748,0-6.876-1.2-7.611-2.8a1.719,1.719,0,0,0-.164.722v.765c0,1.948,3.481,3.526,7.775,3.526s7.775-1.579,7.775-3.526v-.765a1.719,1.719,0,0,0-.164-.722C182.89,246.5,179.762,247.705,176.014,247.705Z" transform="translate(-157.029 -230.074)" fill="#1f6666"/>
      <path id="Tracé_2571" data-name="Tracé 2571" d="M176.014,306.788c-3.748,0-6.876-1.2-7.611-2.8a1.72,1.72,0,0,0-.164.722v.765c0,1.948,3.481,3.526,7.775,3.526s7.775-1.579,7.775-3.526v-.765a1.719,1.719,0,0,0-.164-.722C182.89,305.585,179.762,306.788,176.014,306.788Z" transform="translate(-157.029 -285.22)" fill="#1f6666"/>
    </g>
  </g>
</svg>
