<svg xmlns="http://www.w3.org/2000/svg" width="132.046" height="156.897" viewBox="0 0 132.046 156.897">
  <g id="shield-3" transform="translate(-33.908)">
    <g id="Groupe_647" data-name="Groupe 647" transform="translate(33.908 0)">
      <path id="Tracé_2578" data-name="Tracé 2578" d="M165.788,40.385c-.188-4.128-.188-8.068-.188-12.008a5.528,5.528,0,0,0-5.629-5.629c-23.452,0-41.276-6.754-56.1-21.2a5.788,5.788,0,0,0-7.88,0c-14.822,14.447-32.646,21.2-56.1,21.2a5.528,5.528,0,0,0-5.629,5.629c0,3.94,0,7.88-.188,12.008-.75,39.4-1.876,93.434,63.978,116.136l1.876.375,1.876-.375C167.476,133.819,166.538,79.973,165.788,40.385Zm-70.357,54.6a6.055,6.055,0,0,1-3.94,1.5H91.3a5.28,5.28,0,0,1-3.94-1.876L69.914,75.282l8.443-7.5,13.7,15.2,30.394-28.893,7.692,8.255Z" transform="translate(-33.908 0)" fill="#1f6666"/>
    </g>
  </g>
</svg>
