<svg xmlns="http://www.w3.org/2000/svg" width="18.077" height="14.688" viewBox="0 0 18.077 14.688">
  <path id="mail-inbox-app" d="M15.959,48H2.118A2.121,2.121,0,0,0,0,50.118v1.747l7.774,5.783a2.106,2.106,0,0,0,2.529,0l7.774-5.783V50.118A2.121,2.121,0,0,0,15.959,48Zm.706,3.156-7.2,5.359a.7.7,0,0,1-.843,0l-7.2-5.359V50.118a.707.707,0,0,1,.706-.706h13.84a.707.707,0,0,1,.706.706Zm0,3.52,1.412-1.05v6.943a2.121,2.121,0,0,1-2.118,2.118H2.118A2.121,2.121,0,0,1,0,60.569V53.626l1.412,1.05v5.893a.707.707,0,0,0,.706.706h13.84a.707.707,0,0,0,.706-.706Z" transform="translate(0 -48)" fill="#0f4947"/>
</svg>
