<svg xmlns="http://www.w3.org/2000/svg" width="10.745" height="17.909" viewBox="0 0 10.745 17.909">
  <g id="mobile-phone-2" transform="translate(-73.09)">
    <path id="Tracé_798" data-name="Tracé 798" d="M83.3.532A1.72,1.72,0,0,0,82.044,0H74.881a1.721,1.721,0,0,0-1.259.532,1.721,1.721,0,0,0-.532,1.259V16.118a1.816,1.816,0,0,0,1.791,1.791h7.163a1.816,1.816,0,0,0,1.791-1.791V1.791A1.72,1.72,0,0,0,83.3.532Zm-5.96,1.259h2.239a.2.2,0,0,1,.224.224.2.2,0,0,1-.224.224H77.343a.2.2,0,0,1-.224-.224A.2.2,0,0,1,77.343,1.791Zm1.91,15.118a1.115,1.115,0,1,1,.329-.791A1.079,1.079,0,0,1,79.253,16.909Zm3.239-3.029a.454.454,0,0,1-.448.447H74.881a.453.453,0,0,1-.448-.447V4.03a.454.454,0,0,1,.448-.448h7.163a.454.454,0,0,1,.448.448v9.85h0Z" fill="#0f4947"/>
  </g>
</svg>
